<mxfile host="65bd71144e">
    <diagram id="S7qzYJqoGsa-kgPK1OOJ" name="Page-1">
        <mxGraphModel dx="888" dy="455" grid="1" gridSize="10" guides="1" tooltips="1" connect="1" arrows="1" fold="1" page="1" pageScale="1" pageWidth="850" pageHeight="1100" math="0" shadow="0">
            <root>
                <mxCell id="0"/>
                <mxCell id="1" parent="0"/>
                <mxCell id="2" value="Welcome to sniffs" style="swimlane;whiteSpace=wrap;html=1;" vertex="1" parent="1">
                    <mxGeometry x="50" y="30" width="580" height="380" as="geometry"/>
                </mxCell>
                <mxCell id="6" value="&lt;h1&gt;Pet Profile&lt;/h1&gt;" style="text;html=1;strokeColor=none;fillColor=#99CCFF;spacing=5;spacingTop=-20;whiteSpace=wrap;overflow=hidden;rounded=0;shadow=1;" vertex="1" parent="2">
                    <mxGeometry x="40" y="80" width="150" height="140" as="geometry"/>
                </mxCell>
                <mxCell id="7" value="" style="shape=mxgraph.signs.animals.dog_on_leash;html=1;pointerEvents=1;fillColor=#000000;strokeColor=none;verticalLabelPosition=bottom;verticalAlign=top;align=center;" vertex="1" parent="2">
                    <mxGeometry x="163" y="80" width="27" height="36" as="geometry"/>
                </mxCell>
                <mxCell id="9" value="Details" style="text;html=1;strokeColor=none;fillColor=none;align=center;verticalAlign=middle;whiteSpace=wrap;rounded=0;" vertex="1" parent="2">
                    <mxGeometry x="40" y="145" width="60" height="30" as="geometry"/>
                </mxCell>
                <mxCell id="4" value="" style="swimlane;startSize=0;fillColor=#B3B3B3;" vertex="1" parent="2">
                    <mxGeometry x="290" y="80" width="260" height="270" as="geometry"/>
                </mxCell>
                <mxCell id="5" value="Find NearBy Pets" style="text;html=1;strokeColor=none;fillColor=none;align=center;verticalAlign=middle;whiteSpace=wrap;rounded=0;" vertex="1" parent="4">
                    <mxGeometry x="75" y="10" width="110" height="30" as="geometry"/>
                </mxCell>
                <mxCell id="10" value="Google Map" style="text;html=1;strokeColor=none;fillColor=none;align=center;verticalAlign=middle;whiteSpace=wrap;rounded=0;shadow=1;" vertex="1" parent="4">
                    <mxGeometry x="100" y="120" width="60" height="30" as="geometry"/>
                </mxCell>
                <mxCell id="11" value="Log Out" style="rounded=1;whiteSpace=wrap;html=1;shadow=1;fillColor=#B3B3B3;" vertex="1" parent="2">
                    <mxGeometry x="520" y="10" width="50" height="20" as="geometry"/>
                </mxCell>
                <mxCell id="15" value="&lt;h1&gt;Play Dates&lt;/h1&gt;" style="text;html=1;strokeColor=none;fillColor=#99CCFF;spacing=5;spacingTop=-20;whiteSpace=wrap;overflow=hidden;rounded=0;shadow=1;" vertex="1" parent="2">
                    <mxGeometry x="40" y="230" width="150" height="140" as="geometry"/>
                </mxCell>
                <mxCell id="16" value="" style="shape=mxgraph.signs.animals.dog_on_leash;html=1;pointerEvents=1;fillColor=#000000;strokeColor=none;verticalLabelPosition=bottom;verticalAlign=top;align=center;" vertex="1" parent="2">
                    <mxGeometry x="163" y="230" width="27" height="36" as="geometry"/>
                </mxCell>
                <mxCell id="17" value="Details" style="text;html=1;strokeColor=none;fillColor=none;align=center;verticalAlign=middle;whiteSpace=wrap;rounded=0;" vertex="1" parent="2">
                    <mxGeometry x="50" y="280" width="60" height="30" as="geometry"/>
                </mxCell>
                <mxCell id="13" style="edgeStyle=none;html=1;" edge="1" parent="1" source="11">
                    <mxGeometry relative="1" as="geometry">
                        <mxPoint x="800" y="50" as="targetPoint"/>
                    </mxGeometry>
                </mxCell>
                <mxCell id="14" value="Landing Page&lt;br&gt;sniffsocials" style="rounded=0;whiteSpace=wrap;html=1;shadow=1;fillColor=#99CCFF;" vertex="1" parent="1">
                    <mxGeometry x="800" y="30" width="120" height="60" as="geometry"/>
                </mxCell>
            </root>
        </mxGraphModel>
    </diagram>
</mxfile>